<svg id="mermaid-1619981412366" width="100%" xmlns="http://www.w3.org/2000/svg" xmlns:xlink="http://www.w3.org/1999/xlink" height="900" style="max-width: 496.8958435058594px;" viewBox="-20 -20 496.8958435058594 900"><style>#mermaid-1619981412366{font-family:"trebuchet ms",verdana,arial,sans-serif;font-size:16px;fill:#333;}#mermaid-1619981412366 .error-icon{fill:#552222;}#mermaid-1619981412366 .error-text{fill:#552222;stroke:#552222;}#mermaid-1619981412366 .edge-thickness-normal{stroke-width:2px;}#mermaid-1619981412366 .edge-thickness-thick{stroke-width:3.5px;}#mermaid-1619981412366 .edge-pattern-solid{stroke-dasharray:0;}#mermaid-1619981412366 .edge-pattern-dashed{stroke-dasharray:3;}#mermaid-1619981412366 .edge-pattern-dotted{stroke-dasharray:2;}#mermaid-1619981412366 .marker{fill:#333333;stroke:#333333;}#mermaid-1619981412366 .marker.cross{stroke:#333333;}#mermaid-1619981412366 svg{font-family:"trebuchet ms",verdana,arial,sans-serif;font-size:16px;}#mermaid-1619981412366 g.classGroup text{fill:#9370DB;fill:#131300;stroke:none;font-family:"trebuchet ms",verdana,arial,sans-serif;font-size:10px;}#mermaid-1619981412366 g.classGroup text .title{font-weight:bolder;}#mermaid-1619981412366 .classTitle{font-weight:bolder;}#mermaid-1619981412366 .node rect,#mermaid-1619981412366 .node circle,#mermaid-1619981412366 .node ellipse,#mermaid-1619981412366 .node polygon,#mermaid-1619981412366 .node path{fill:#ECECFF;stroke:#9370DB;stroke-width:1px;}#mermaid-1619981412366 .divider{stroke:#9370DB;stroke:1;}#mermaid-1619981412366 g.clickable{cursor:pointer;}#mermaid-1619981412366 g.classGroup rect{fill:#ECECFF;stroke:#9370DB;}#mermaid-1619981412366 g.classGroup line{stroke:#9370DB;stroke-width:1;}#mermaid-1619981412366 .classLabel .box{stroke:none;stroke-width:0;fill:#ECECFF;opacity:0.5;}#mermaid-1619981412366 .classLabel .label{fill:#9370DB;font-size:10px;}#mermaid-1619981412366 .relation{stroke:#333333;stroke-width:1;fill:none;}#mermaid-1619981412366 .dashed-line{stroke-dasharray:3;}#mermaid-1619981412366 #compositionStart,#mermaid-1619981412366 .composition{fill:#333333 !important;stroke:#333333 !important;stroke-width:1;}#mermaid-1619981412366 #compositionEnd,#mermaid-1619981412366 .composition{fill:#333333 !important;stroke:#333333 !important;stroke-width:1;}#mermaid-1619981412366 #dependencyStart,#mermaid-1619981412366 .dependency{fill:#333333 !important;stroke:#333333 !important;stroke-width:1;}#mermaid-1619981412366 #dependencyStart,#mermaid-1619981412366 .dependency{fill:#333333 !important;stroke:#333333 !important;stroke-width:1;}#mermaid-1619981412366 #extensionStart,#mermaid-1619981412366 .extension{fill:#333333 !important;stroke:#333333 !important;stroke-width:1;}#mermaid-1619981412366 #extensionEnd,#mermaid-1619981412366 .extension{fill:#333333 !important;stroke:#333333 !important;stroke-width:1;}#mermaid-1619981412366 #aggregationStart,#mermaid-1619981412366 .aggregation{fill:#ECECFF !important;stroke:#333333 !important;stroke-width:1;}#mermaid-1619981412366 #aggregationEnd,#mermaid-1619981412366 .aggregation{fill:#ECECFF !important;stroke:#333333 !important;stroke-width:1;}#mermaid-1619981412366 .edgeTerminals{font-size:11px;}#mermaid-1619981412366:root{--mermaid-font-family:"trebuchet ms",verdana,arial,sans-serif;}#mermaid-1619981412366 class{fill:apa;}</style><g></g><defs><marker id="extensionStart" class="extension" refX="0" refY="7" markerWidth="190" markerHeight="240" orient="auto"><path d="M 1,7 L18,13 V 1 Z"></path></marker></defs><defs><marker id="extensionEnd" refX="19" refY="7" markerWidth="20" markerHeight="28" orient="auto"><path d="M 1,1 V 13 L18,7 Z"></path></marker></defs><defs><marker id="compositionStart" class="extension" refX="0" refY="7" markerWidth="190" markerHeight="240" orient="auto"><path d="M 18,7 L9,13 L1,7 L9,1 Z"></path></marker></defs><defs><marker id="compositionEnd" refX="19" refY="7" markerWidth="20" markerHeight="28" orient="auto"><path d="M 18,7 L9,13 L1,7 L9,1 Z"></path></marker></defs><defs><marker id="aggregationStart" class="extension" refX="0" refY="7" markerWidth="190" markerHeight="240" orient="auto"><path d="M 18,7 L9,13 L1,7 L9,1 Z"></path></marker></defs><defs><marker id="aggregationEnd" refX="19" refY="7" markerWidth="20" markerHeight="28" orient="auto"><path d="M 18,7 L9,13 L1,7 L9,1 Z"></path></marker></defs><defs><marker id="dependencyStart" class="extension" refX="0" refY="7" markerWidth="190" markerHeight="240" orient="auto"><path d="M 5,7 L9,13 L1,7 L9,1 Z"></path></marker></defs><defs><marker id="dependencyEnd" refX="19" refY="7" markerWidth="20" markerHeight="28" orient="auto"><path d="M 18,7 L9,13 L14,7 L9,1 Z"></path></marker></defs><g id="classid-main-34823" class="classGroup" transform="translate(136.20834350585938,0 )"><rect x="0" y="0" width="225.8333282470703" height="94" class=" "></rect><text y="15" x="0"><tspan class="title" x="101.50833034515381">main</tspan></text><line x1="0" y1="23" y2="23" x2="225.8333282470703"></line><text x="5" y="33" fill="white" class="classText"><tspan x="5">take_in folder_path</tspan><tspan x="5" dy="10">+list: folders_with_abf_files</tspan></text><line x1="0" y1="51" y2="51" x2="225.8333282470703"></line><text x="5" y="66" fill="white" class="classText"><tspan x="5">iterate_through_file_paths() : populate classes</tspan><tspan x="5" dy="10">file_details() : populate file_details</tspan><tspan x="5" dy="10">run_functions()</tspan></text></g><g id="classid-file_details-34824" class="classGroup" transform="translate(133.70000457763672,144 )"><rect x="0" y="0" width="230.85000610351562" height="94" class=" "></rect><text y="15" x="0"><tspan class="title" x="89.25833702087402">file_details</tspan></text><line x1="0" y1="23" y2="23" x2="230.85000610351562"></line><text x="5" y="33" fill="white" class="classText"><tspan x="5">take_in folder_path</tspan><tspan x="5" dy="10">+cell_list: saved_folder_path_with_experiments</tspan><tspan x="5" dy="10">+cell_data: file_path_to_Each_experiment</tspan><tspan x="5" dy="10">+cell_no: cell_ID</tspan></text><line x1="0" y1="71" y2="71" x2="230.85000610351562"></line><text x="5" y="86" fill="white" class="classText"><tspan x="5">Map_info_to_plot(out_dir_n_file_with_cell_ID)</tspan></text></g><g id="classid-cell_data-34825" class="classGroup" transform="translate(27.60833740234375,288 )"><rect x="0" y="0" width="253.61666870117188" height="64" class=" "></rect><text y="15" x="0"><tspan class="title" x="105.2750015258789">cell_data</tspan></text><line x1="0" y1="23" y2="23" x2="253.61666870117188"></line><text x="5" y="33" fill="white" class="classText"><tspan x="5">+list: all_folder_paths_with_one_cells_exp</tspan></text><line x1="0" y1="41" y2="41" x2="253.61666870117188"></line><text x="5" y="56" fill="white" class="classText"><tspan x="5">Protocols(cell in cell data) : populates protocol_class</tspan></text></g><g id="classid-protocols-34826" class="classGroup" transform="translate(28.4666748046875,402 )"><rect x="0" y="0" width="251.89999389648438" height="64" class=" "></rect><text y="15" x="0"><tspan class="title" x="104.23332977294922">protocols</tspan></text><line x1="0" y1="23" y2="23" x2="251.89999389648438"></line><text x="5" y="33" fill="white" class="classText"><tspan x="5">Have_some_ambiguity_about_how_to_structure_this</tspan></text><line x1="0" y1="41" y2="41" x2="251.89999389648438"></line><text x="5" y="56" fill="white" class="classText"><tspan x="5">+abf_file(on each file) : populates_abf_file_class</tspan></text></g><g id="classid-abf_file-34827" class="classGroup" transform="translate(0,516 )"><rect x="0" y="0" width="308.8333435058594" height="96" class=" "></rect><text y="15" x="0"><tspan class="title" x="136.36667251586914">abf_file</tspan></text><line x1="0" y1="23" y2="23" x2="308.8333435058594"></line><text x="5" y="33" fill="white" class="classText"><tspan x="5">+Protocol_name: protocol_names_saved</tspan><tspan x="5" dy="10">+Recording: cell_recording_including_all_channels_of_recording</tspan><tspan x="5" dy="10">+protocol_raw_data: All_DAQ_related_infos_in_the_form_of_dict</tspan><tspan x="5" dy="10">+Protocol_trace: Array_time_series_protocol</tspan><tspan x="5" dy="10">+Sampling_rate: sampling_rate_of_recorded_file</tspan><tspan x="5" dy="10">+</tspan></text><line x1="0" y1="91" y2="91" x2="308.8333435058594"></line><text x="5" y="106" fill="white" class="classText"></text></g><g id="classid-Analysed__info-34828" class="classGroup" transform="translate(95.95417022705078,662 )"><rect x="0" y="0" width="303.8500061035156" height="74" class=" "></rect><text y="15" x="0"><tspan class="title" x="116.08333587646484">Analysed__info</tspan></text><line x1="0" y1="23" y2="23" x2="303.8500061035156"></line><text x="5" y="33" fill="white" class="classText"><tspan x="5">+Pick_right_function_for_analysis/plotting</tspan></text><line x1="0" y1="41" y2="41" x2="303.8500061035156"></line><text x="5" y="56" fill="white" class="classText"><tspan x="5">Analysis_functions() : list_is_yet_to_be_made</tspan><tspan x="5" dy="10">Plotting_functions() : Some_are_ready_but_has_to_be_modified</tspan></text></g><g id="classid-Save_result-34829" class="classGroup" transform="translate(38.862510681152344,786 )"><rect x="0" y="0" width="418.0333251953125" height="74" class=" "></rect><text y="15" x="0"><tspan class="title" x="181.78332901000977">Save_result</tspan></text><line x1="0" y1="23" y2="23" x2="418.0333251953125"></line><text x="5" y="33" fill="white" class="classText"><tspan x="5">+Save_a_huge_figure_with_many_pannels</tspan><tspan x="5" dy="10">+Save_relevent_cel_info/metadata</tspan></text><line x1="0" y1="51" y2="51" x2="418.0333251953125"></line><text x="5" y="66" fill="white" class="classText"><tspan x="5">Sanity_check_fucntions() : checks_Whether_the_files_that_are_same_as_the_result_ones</tspan></text></g><path d="M249.12500762939453,94L249.12500762939453,98.16666666666667C249.12500762939453,102.33333333333333,249.12500762939453,110.66666666666667,249.12500762939453,119C249.12500762939453,127.33333333333333,249.12500762939453,135.66666666666666,249.12500762939453,139.83333333333334L249.12500762939453,144" id="edge18617" class="relation" marker-end="url(#extensionEnd)"></path><path d="M187.30151059892444,238L181.82070412459197,242.16666666666666C176.33989765025953,246.33333333333334,165.3782847015946,254.66666666666666,159.89747822726216,263C154.4166717529297,271.3333333333333,154.4166717529297,279.6666666666667,154.4166717529297,283.8333333333333L154.4166717529297,288" id="edge18618" class="relation" marker-end="url(#extensionEnd)"></path><path d="M154.4166717529297,352L154.4166717529297,356.1666666666667C154.4166717529297,360.3333333333333,154.4166717529297,368.6666666666667,154.4166717529297,377C154.4166717529297,385.3333333333333,154.4166717529297,393.6666666666667,154.4166717529297,397.8333333333333L154.4166717529297,402" id="edge18619" class="relation" marker-end="url(#extensionEnd)"></path><path d="M154.4166717529297,466L154.4166717529297,470.1666666666667C154.4166717529297,474.3333333333333,154.4166717529297,482.6666666666667,154.4166717529297,491C154.4166717529297,499.3333333333333,154.4166717529297,507.6666666666667,154.4166717529297,511.8333333333333L154.4166717529297,516" id="edge18620" class="relation" marker-end="url(#extensionEnd)"></path><path d="M215.87146727679527,612L221.2060849437975,616.1666666666666C226.5407026107997,620.3333333333334,237.20993794480418,628.6666666666666,242.54455561180637,637C247.8791732788086,645.3333333333334,247.8791732788086,653.6666666666666,247.8791732788086,657.8333333333334L247.8791732788086,662" id="edge18621" class="relation" marker-end="url(#extensionEnd)"></path><path d="M92.9618762290641,612L87.62725856206187,616.1666666666666C82.29264089505966,620.3333333333334,71.62340556105522,628.6666666666666,66.288787894053,643.1666666666666C60.95417022705078,657.6666666666666,60.95417022705078,678.3333333333334,60.95417022705078,699C60.95417022705078,719.6666666666666,60.95417022705078,740.3333333333334,73.51633441063666,754.8333333333334C86.07849859422254,769.3333333333334,111.20282696139428,777.6666666666666,123.76499114498016,781.8333333333334L136.32715532856602,786" id="edge18622" class="relation" marker-end="url(#extensionEnd)"></path><path d="M247.8791732788086,736L247.8791732788086,740.1666666666666C247.8791732788086,744.3333333333334,247.8791732788086,752.6666666666666,247.8791732788086,761C247.8791732788086,769.3333333333334,247.8791732788086,777.6666666666666,247.8791732788086,781.8333333333334L247.8791732788086,786" id="edge18623" class="relation" marker-end="url(#extensionEnd)"></path><path d="M364.55001068115234,235.45954304692685L376.46667734781903,240.0496192057724C388.38334401448566,244.6396953646179,412.21667734781903,253.81984768230896,424.13334401448566,267.90992384115447C436.05001068115234,282,436.05001068115234,301,436.05001068115234,320C436.05001068115234,339,436.05001068115234,358,436.05001068115234,377C436.05001068115234,396,436.05001068115234,415,436.05001068115234,434C436.05001068115234,453,436.05001068115234,472,436.05001068115234,493.6666666666667C436.05001068115234,515.3333333333334,436.05001068115234,539.6666666666666,436.05001068115234,564C436.05001068115234,588.3333333333334,436.05001068115234,612.6666666666666,436.05001068115234,635.1666666666666C436.05001068115234,657.6666666666666,436.05001068115234,678.3333333333334,436.05001068115234,699C436.05001068115234,719.6666666666666,436.05001068115234,740.3333333333334,423.4041210707798,754.8333333333334C410.7582314604072,769.3333333333334,385.46645223966215,777.6666666666666,372.8205626292895,781.8333333333334L360.17467301891696,786" id="edge18624" class="relation" marker-end="url(#extensionEnd)"></path></svg>